<svg xmlns="http://www.w3.org/2000/svg" viewBox="0 0 920 540" width="920" height="540" font-family="ui-monospace, SFMono-Regular, Menlo, Consolas, monospace">
  <style>
    .bg{ fill:#012456; }
    .topbar{ fill:#021b3a; }
    .arrow{ fill:#21a7f0; }
    .caret{ fill:#ffffff; }
    .t{ fill:#e6edf3; font-size:13.5px; }
    .dim{ fill:#9ca3af; font-size:13.5px; }
    .hl{ fill:#ffffff; font-weight:600; }
    .tn{ fill:#9ca3af; font-family:-apple-system,Segoe UI,sans-serif; font-size:13px; }
  </style>

  <!-- 标题栏 -->
  <rect class="topbar" x="0" y="0" width="920" height="34"/>
  <line x1="0" y1="34" x2="920" y2="34" stroke="#1e293b" stroke-width="1"/>
  <text class="tn" x="14" y="22">Windows PowerShell</text>
  <line x1="120" y1="10" x2="120" y2="24" stroke="#374151" stroke-width="1"/>
  <text class="tn" x="130" y="22">+</text>
  <text class="tn" x="155" y="22">˅</text>
  <line x1="888" y1="10" x2="888" y2="24" stroke="#374151" stroke-width="1"/>
  <text class="tn" x="896" y="22" text-anchor="end">—  □  ✕</text>

  <!-- 终端主体 -->
  <rect class="bg" x="0" y="34" width="920" height="506"/>

  <!-- 命令 -->
  <text class="arrow" x="20" y="72" font-size:="14">PS </text>
  <text class="t" x="44" y="72">C:\Users\Lenovo\Web-&gt; hugo server -D</text>

  <text class="dim" x="20" y="98">port 1313 already in use, attempting to use an available port</text>
  <text class="dim" x="20" y="120">Watching for changes in C:/Users/Lenovo/Web-/archetypes,</text>
  <text class="dim" x="20" y="140">  C:/Users/Lenovo/Web-/content/{deploy,posts,team,report},</text>
  <text class="dim" x="20" y="160">  C:/Users/Lenovo/Web-/static/{css,images},</text>
  <text class="dim" x="20" y="180">  C:/Users/Lenovo/Web-/themes/ananke/...</text>
  <text class="dim" x="20" y="200">Watching for config changes in C:\Users\Lenovo\Web-\hugo.toml</text>

  <text class="t" x="20" y="232">Start building sites …</text>
  <text class="t" x="20" y="252">hugo v0.164.0-ce2470e7012b5ab5fc4e10ebe4027e9f8d9e00dc+extended</text>
  <text class="t" x="20" y="272">windows/amd64 BuildDate=2026-07-06T16:39:30Z VendorInfo=gohugoio</text>

  <!-- 表格 -->
  <text class="t" x="320" y="318">│ EN</text>
  <line x1="60" y1="328" x2="540" y2="328" stroke="#9ca3af" stroke-width="1"/>
  <line x1="312" y1="338" x2="312" y2="498" stroke="#9ca3af" stroke-width="1"/>
  <line x1="316" y1="328" x2="316" y2="338" stroke="#9ca3af" stroke-width="1"/>
  <text class="t" x="68" y="354"> Pages            │</text>
  <text class="hl" x="500" y="354" text-anchor="end">14</text>
  <text class="t" x="68" y="374"> Paginator pages  │</text>
  <text class="hl" x="500" y="374" text-anchor="end">0</text>
  <text class="t" x="68" y="394"> Non-page files   │</text>
  <text class="hl" x="500" y="394" text-anchor="end">0</text>
  <text class="t" x="68" y="414"> Static files     │</text>
  <text class="hl" x="500" y="414" text-anchor="end">4</text>
  <text class="t" x="68" y="434"> Processed images │</text>
  <text class="hl" x="500" y="434" text-anchor="end">0</text>
  <text class="t" x="68" y="454"> Aliases          │</text>
  <text class="hl" x="500" y="454" text-anchor="end">1</text>
  <text class="t" x="68" y="474"> Cleaned          │</text>
  <text class="hl" x="500" y="474" text-anchor="end">0</text>

  <text class="t" x="20" y="510">Total in 281 ms</text>
  <text class="t" x="20" y="530" fill="#fbbf24">Web Server is available at http://localhost:54635/ (bind address 127.0.0.1)</text>
</svg>
